<svg version="1.1" xmlns="http://www.w3.org/2000/svg" xmlns:xlink="http://www.w3.org/1999/xlink" width="512.000000pt" height="512.000000pt" viewBox="0,0,256,256"><g fill="#6058bb" fill-rule="nonzero" stroke="none" stroke-width="1" stroke-linecap="butt" stroke-linejoin="miter" stroke-miterlimit="10" stroke-dasharray="" stroke-dashoffset="0" font-family="none" font-weight="none" font-size="none" text-anchor="none" style="mix-blend-mode: normal"><g transform="translate(0.02255,0.01103) scale(0.5,0.5)"><g transform="translate(0,512) scale(0.1,-0.1)"><path d="M403,4276c-144,-35 -275,-140 -345,-278c-61,-118 -59,-71 -56,-1468l3,-1275l23,-65c55,-153 175,-275 329,-333l58,-22l1708,-3c1538,-2 1714,-1 1770,14c188,48 347,214 386,402c8,36 11,379 11,1100c0,1142 2,1099 -57,1222c-36,75 -150,188 -230,229c-123,62 -108,61 -999,61h-812l-6,34c-22,116 -144,272 -261,333c-121,63 -117,63 -826,62c-479,0 -657,-4 -696,-13zM3113,2895c146,-26 277,-109 330,-210c19,-35 22,-61 25,-222c4,-168 6,-183 23,-188c32,-10 79,-55 99,-96c19,-36 20,-60 20,-369c0,-375 -1,-382 -81,-440c-76,-55 -79,-55 -544,-55c-428,0 -430,0 -480,23c-60,28 -91,55 -116,104c-18,34 -19,63 -19,368c0,309 1,333 20,369c20,41 67,86 99,96c18,5 19,19 23,188c3,166 6,186 26,225c52,98 182,181 324,207c96,17 156,17 251,0z"></path><path d="M2935,2699c-60,-7 -127,-40 -149,-71c-13,-18 -16,-52 -16,-170v-148h220h220v148c0,118 -3,152 -16,170c-36,52 -153,84 -259,71z"></path><path d="M4360,3805c0,-3 16,-29 36,-59c19,-29 47,-87 62,-127l27,-74l5,-1198l5,-1198l52,66c97,123 95,113 318,1101c113,500 217,956 232,1014c19,81 24,120 20,170c-15,173 -124,279 -310,300c-85,10 -447,14 -447,5z"></path></g></g></g></svg>