<svg version="1.1" xmlns="http://www.w3.org/2000/svg" xmlns:xlink="http://www.w3.org/1999/xlink" width="512.000000pt" height="512.000000pt" viewBox="0,0,256,256"><g fill="#6258c1" fill-rule="nonzero" stroke="none" stroke-width="1" stroke-linecap="butt" stroke-linejoin="miter" stroke-miterlimit="10" stroke-dasharray="" stroke-dashoffset="0" font-family="none" font-weight="none" font-size="none" text-anchor="none" style="mix-blend-mode: normal"><g transform="translate(0.01207,0.13736) scale(0.5,0.5)"><g transform="translate(0,512) scale(0.1,-0.1)"><path d="M480,4307c-49,-16 -133,-102 -148,-153c-9,-32 -12,-343 -11,-1315c0,-1280 2,-1354 34,-1340c6,3 299,366 652,807c353,442 653,810 665,818c63,40 144,27 199,-31c20,-21 125,-155 234,-298c109,-143 202,-264 206,-270c6,-5 104,85 247,227c202,201 243,237 275,243c49,9 99,-1 131,-26c15,-12 165,-173 333,-358c169,-185 310,-337 314,-339c4,-2 39,13 78,32c110,56 229,86 359,93l112,6v855c0,631 -3,865 -12,894c-6,22 -31,62 -55,88c-78,87 86,80 -1857,79c-1224,-1 -1731,-4 -1756,-12zM3444,3962c91,-42 149,-100 194,-190c35,-72 37,-81 37,-172c0,-91 -2,-100 -37,-172c-45,-91 -103,-147 -196,-191c-61,-29 -76,-32 -162,-32c-86,0 -101,3 -162,32c-93,44 -151,100 -196,191c-35,72 -37,81 -37,171c0,87 3,102 32,163c40,85 97,147 172,186c78,42 122,52 213,48c61,-3 92,-11 142,-34z"></path><path d="M3200,3827c-49,-16 -133,-102 -148,-153c-28,-94 -8,-169 63,-239c51,-52 102,-75 165,-75c124,0 240,116 240,240c0,63 -23,114 -75,165c-70,71 -152,91 -245,62z"></path><path d="M1113,2183c-403,-503 -637,-802 -631,-808c12,-13 2511,-19 2506,-6c-5,15 -1222,1610 -1229,1611c-3,0 -293,-359 -646,-797z"></path><path d="M2644,2608l-226,-224l393,-504c215,-278 393,-507 395,-509c2,-2 0,43 -3,100c-13,236 61,446 219,631l60,70l-30,31c-16,18 -150,165 -297,327c-147,162 -272,297 -277,299c-5,1 -111,-98 -234,-221z"></path><path d="M3940,2226c-155,-34 -256,-89 -370,-205c-67,-67 -95,-105 -128,-171c-62,-125 -77,-192 -76,-340c1,-107 5,-137 27,-205c38,-115 90,-199 182,-290c93,-93 160,-135 282,-178c80,-28 100,-31 213,-31c148,-1 216,14 338,76c251,125 409,405 389,689c-13,177 -81,323 -212,454c-139,139 -283,203 -475,210c-67,3 -128,-1 -170,-9zM4154,1988c55,-16 138,-99 154,-154c7,-23 12,-67 12,-98v-56h55c46,0 60,-4 80,-25l25,-24v-271v-271l-25,-24l-24,-25h-351h-351l-24,25l-25,24v271v271l25,24c20,21 34,25 80,25h55v56c0,87 18,133 75,189c70,71 145,90 239,63z"></path><path d="M4025,1815c-21,-20 -25,-34 -25,-80v-55h80h80v55c0,67 -29,105 -80,105c-19,0 -40,-9 -55,-25z"></path><path d="M3840,1360v-160h240h240v160v160h-240h-240zM4135,1415c50,-49 15,-135 -55,-135c-41,0 -80,39 -80,80c0,41 39,80 80,80c19,0 40,-9 55,-25z"></path></g></g></g></svg>